<?xml version="1.0"?>
<svg width="100" height="83.776" xmlns="http://www.w3.org/2000/svg" xmlns:svg="http://www.w3.org/2000/svg">
 <g>
  <title>Layer 1</title>
  <path fill="#ffffff" id="svg_1" d="m63.723999,25.521l-27.447998,0l-25.156001,58.255001l77.760005,0l-25.156006,-58.255001zm-11.210999,55.370998l-5.026001,0l0,-10.064995l5.026001,0l0,10.064995zm0,-20.136997l-5.026001,0l0,-10.065002l5.026001,0l0,10.065002zm0,-20.130001l-5.026001,0l0,-10.065001l5.026001,0l0,10.065001z"/>
  <path fill="#ffffff" id="svg_2" d="m100,0l0,42.526001l-20.358002,0c0.071999,-0.833 0.130997,-1.667 0.130997,-2.513c0,-16.608 -13.463997,-30.077998 -30.078999,-30.077998c-16.601997,0 -30.070997,13.47 -30.070997,30.077998c0,0.846001 0.059,1.68 0.124001,2.513l-19.747,0l0,-42.526001l100,0z"/>
 </g>
</svg>