<?xml version="1.0"?>
<svg width="95.235" height="100.004" xmlns="http://www.w3.org/2000/svg" xmlns:svg="http://www.w3.org/2000/svg">
 <g>
  <title>Layer 1</title>
  <path fill="#FFFFFF" id="svg_1" d="m80.834,62.324001c1.868004,3.73 10.273003,23.334003 10.273003,26.146c0,15.377998 -20.541,15.377998 -20.541,0c0.000999,-2.812004 8.405998,-23.346001 10.267998,-26.146z"/>
  <path fill="#FFFFFF" id="svg_2" d="m92.969002,51.895c0,-2.122002 0,-5.653999 0,-11.857998c0,-7.513 -6.821999,-14.007002 -15.864998,-14.007002c0,0 -0.053001,0 -21.127003,0l-0.117001,-6.591999c0,-1.895 -1.542999,-3.441001 -3.444,-3.441001l-8.260998,0l0,-4.231999c0.716,-0.423 1.308998,-0.954 1.809998,-1.604c2.480999,0 7.5,0 17.591,0c1.179001,1.51 2.917,2.559 4.973999,2.559c3.503006,0 6.354004,-2.842 6.354004,-6.354c-0.000999,-3.518001 -2.852005,-6.366001 -6.355003,-6.366001c-2.102997,0 -3.887001,1.11 -5.039001,2.692c-2.778999,0 -7.980999,0 -17.440998,0c-1.172001,-1.582 -2.943001,-2.692 -5.051998,-2.692c-2.097,0 -3.887001,1.11 -5.039001,2.692c-5.396999,0 -11.797001,0 -19.257999,0c-1.153001,-1.582 -2.93,-2.692 -5.027,-2.692c-3.515,0 -6.361001,2.848 -6.361001,6.364c0,3.513 2.845,6.354001 6.361001,6.354001c2.044,0 3.789,-1.048 4.941,-2.559c3.184,0 8.983999,0 19.421,0c0.507999,0.664 1.112999,1.204 1.841999,1.611l0,4.224999l-8.77,0c-1.894999,0 -3.438,1.546 -3.438,3.441001l0,6.591999c-2.154999,0 -8.327,0 -25.671,0l0,20.541c0.605,0 4.766,0 28.555,0c2.799,5.614998 6.530001,8.396 12.135,8.396c5.598999,0 10.267002,-2.779999 13.067001,-8.396c0,0 0,0 10.272999,0c3.066002,0 4.198997,1.973 4.524002,5.755001c-0.898003,0.612 -1.516998,1.605 -1.516998,2.779999c0,1.901001 1.542999,3.444 3.437996,3.444l21.315002,0c1.900002,0 3.443001,-1.542999 3.443001,-3.444c0.003998,-1.487 -0.939003,-2.727001 -2.262001,-3.209z"/>
 </g>
</svg>