<?xml version="1.0"?>
<svg width="36.439" height="100.27700000000002" xmlns="http://www.w3.org/2000/svg" xmlns:svg="http://www.w3.org/2000/svg">
 <g>
  <title>Layer 1</title>
  <path fill="#FFFFFF" id="svg_1" d="m26.469999,95.630997c-0.021,2.550003 2.024,4.625 4.567999,4.646004c2.548,0.020996 4.624001,-2.021004 4.645,-4.567001l0.757,-90.403002c0.036999,-4.47 -2.868999,-4.971 -4.903,-4.987c-2.042,-0.017 -5.816999,5.713 -6.673,11c-0.863998,5.282002 -5.972998,32.524005 2.124002,37.887004l-0.518002,46.423996l0,0l0,0z"/>
  <path fill="#FFFFFF" id="svg_2" d="m4.888,95.452003l0.618,-58.232002c-3.314,-0.027 -4.944,-3.974003 -5.506,-6.830002l2.006,-30.111999l2.714,24.306l2.543,-24.264l2.711,24.308l3.124,-24.259l2.131001,24.302999l3.120001,-24.259l1.497,30.142999c-0.602001,2.845999 -2.064001,6.766001 -5.386001,6.739l-0.353,58.233002c-0.021,2.547997 -2.106,4.589996 -4.649,4.568001c-2.544,-0.021004 -4.59,-2.096001 -4.57,-4.643997l0,0l0,0z"/>
 </g>
</svg>