<?xml version="1.0"?>
<svg width="100" height="100" xmlns="http://www.w3.org/2000/svg" xmlns:svg="http://www.w3.org/2000/svg">
 <g>
  <title>Layer 1</title>
  <path id="svg_1" d="m82.601997,59.145c-2.875,0 -5.207001,2.329998 -5.207001,5.206997c0,1.953003 1.076004,3.653999 2.667999,4.545006c0.751999,0.421997 1.617004,0.661995 2.539001,0.661995c0.614998,0 1.205002,-0.108002 1.753998,-0.304001c2.014,-0.721001 3.455002,-2.643997 3.453003,-4.903c0,-2.876999 -2.330002,-5.206997 -5.207001,-5.206997zm2.108002,7.833996c-0.552002,0.417999 -1.238998,0.669998 -1.987,0.669998c-0.888,0 -1.690002,-0.352997 -2.282997,-0.921997c-0.623001,-0.602005 -1.014,-1.441002 -1.014,-2.375c0,-1.822002 1.476997,-3.299 3.296997,-3.299c1.820999,0 3.298996,1.476997 3.298996,3.299c-0.000992,1.073006 -0.516998,2.024002 -1.311996,2.626999z" fill="none"/>
  <path fill="#FFFFFF" id="svg_2" d="m82.723,56.087002c-4.607002,0 -8.344002,3.735001 -8.344002,8.344997c0,3.344002 1.969002,6.229004 4.811005,7.559006c-3.082001,8.991997 -10.916,18.380997 -20.090004,18.380997c-11.257,0 -20.499001,-14.131996 -21.415001,-24.327995c1.886002,-0.738007 3.374001,-2.396004 4.021,-4.480003c5.923,-2.416 11.392002,-8.334 15.550999,-17.035c0.550003,-1.151001 0.425003,-2.448997 -0.216,-3.451c2.645,-6.433998 4.191002,-13.504 4.191002,-19.591c0,-10.209 -0.694,-14.566999 -7.707001,-15.785999c-0.521,-0.645 -1.317001,-1.058 -2.213001,-1.058l-6.077999,0c-1.571999,0 -2.847,1.274 -2.847,2.847c0,0.005 0.000999,0.01 0.000999,0.015c0.007999,1.565001 1.279003,2.832 2.846001,2.832l6.077999,0c0.558002,0 1.076,-0.162 1.515003,-0.438c1.898998,0.322 2.630997,0.875 3.058998,1.613c0.906002,1.565001 1.077,4.713 1.077,9.976001c0,5.605 -1.449001,12.143999 -3.920998,18.096998c-0.935001,0.275002 -1.754002,0.927002 -2.207001,1.875c-4.253002,8.896999 -9.926003,14.209 -15.174,14.209c-5.352001,0 -11.300001,-5.73 -15.523001,-14.952999c-0.500999,-1.096001 -1.49,-1.813 -2.591002,-2.015999c-2.251999,-5.710003 -3.561999,-11.883001 -3.561999,-17.211002c0,-5.156 0.192,-8.449999 1.174001,-10.027999c0.464999,-0.747001 1.254999,-1.302 3.321999,-1.609c0.455002,0.308 1.003,0.487 1.593,0.487l6.078001,0c1.571001,0 2.844,-1.271 2.847,-2.841c0,-0.002 0,-0.004 0,-0.006c0,-1.573 -1.274,-2.847 -2.847,-2.847l-6.078001,0c-0.854,0 -1.618,0.377 -2.138998,0.973c-2.838001,0.416 -5.022,1.371 -6.402,3.586c-1.538,2.471 -1.819,6.075999 -1.819,12.284999c0,5.940001 1.476,12.814999 4.004,19.123001c-0.462,0.928997 -0.518,2.050999 -0.051999,3.067997c2.443,5.336002 5.52,9.877003 8.898,13.133003c2.101999,2.023998 4.330999,3.550999 6.618,4.556c0.626999,2.229 2.209999,3.999001 4.222,4.730995c0.443001,5.875 3.153,12.629005 7.296001,18.025002c5.209,6.783005 11.743,10.520004 18.398998,10.520004c6.653999,0 13.189003,-3.735001 18.396996,-10.520004c2.638,-3.435997 4.692001,-7.420998 5.954002,-11.379997c4.266998,-0.369003 7.614998,-3.946999 7.614998,-8.312004c0.001007,-4.611 -3.733994,-8.345997 -8.341995,-8.345997zm1.632004,13.167995c-0.549004,0.195 -1.139,0.304001 -1.753998,0.304001c-0.922005,0 -1.787003,-0.239998 -2.539001,-0.662003c-1.592003,-0.890999 -2.667999,-2.591995 -2.667999,-4.544998c0,-2.876999 2.332001,-5.207001 5.207001,-5.207001c2.876999,0 5.207001,2.330002 5.207001,5.207001c0.002991,2.259003 -1.439003,4.181999 -3.453003,4.903z"/>
  <path fill="#FFFFFF" id="svg_3" d="m82.723,61.053001c-1.82,0 -3.296997,1.477001 -3.296997,3.298996c0,0.934006 0.390999,1.773003 1.014,2.375c0.592995,0.569 1.395996,0.922005 2.282997,0.922005c0.748001,0 1.435997,-0.251999 1.987,-0.669998c0.794998,-0.603004 1.312004,-1.554001 1.312004,-2.627007c-0.000999,-1.822998 -1.478004,-3.298996 -3.299004,-3.298996z"/>
  <path fill="#FFFFFF" id="svg_4" d="m82.723999,22.601999c-8.282997,0 -15,6.716 -15,14.999998s6.717003,15 15,15c8.285004,0 15,-6.716 15,-15s-6.714996,-14.999998 -15,-14.999998zm6.999001,16.925001l-5.072998,0l0,5.075001l-3.854004,0l0,-5.075001l-5.071999,0l0,-3.851002l5.071999,0l0,-5.074997l3.854004,0l0,5.074997l5.071999,0l0,3.851002l0.000999,0z"/>
 </g>
</svg>