<?xml version="1.0"?>
<svg width="100" height="100" xmlns="http://www.w3.org/2000/svg" xmlns:svg="http://www.w3.org/2000/svg">
 <g>
  <title>Layer 1</title>
  <g id="svg_1">
   <g id="svg_2">
    <path fill="#FFFFFF" id="svg_3" d="m51,48.856998l-47.9,7.240002l0,-14.720001l47.9,7.48zm7.240002,48.021999l-14.720001,0l7.48,-48.021999l-28.837,39.092999l-10.376,-10.496994l39.213,-28.596004l7.240002,48.021999zm-7.240002,-48.021999l-38.973,-28.836998l10.376999,-10.376l28.596001,39.212998l-7.118,-47.900998l14.720001,0l-7.602001,47.900998zm39.335999,-28.594999l-39.335999,28.594999l28.837997,-38.971998l10.498001,10.376999zm8.687004,36.197001l-48.023003,-7.602001l48.023003,-7.118999l0,14.721001zm-9.050003,21.235001l-10.375,10.498001l-28.598,-39.335003l38.973,28.837002z"/>
   </g>
  </g>
 </g>
</svg>