<?xml version="1.0"?>
<svg viewBox="0 0 47 47" xmlns="http://www.w3.org/2000/svg" xmlns:svg="http://www.w3.org/2000/svg">
 <g>
  <title>Layer 1</title>
  <g id="svg_1">
   <path id="svg_2" d="m3.2,25.6l13.599999,7.6c1.200001,0.700001 2.800001,0.200001 3.4,-1l0.200001,-0.400002c0.299999,-0.599998 0.4,-1.199999 0.200001,-1.9c-0.200001,-0.6 -0.6,-1.199999 -1.200001,-1.5l-9.8,-5.5l-3.799999,-2.1c-0.4,-0.199999 -0.8,-0.299999 -1.2,-0.299999c-0.9,0 -1.7,0.5 -2.2,1.299999l-0.2,0.400002c-0.3,0.599998 -0.4,1.199999 -0.2,1.9c0.2,0.699999 0.6,1.199999 1.2,1.5z" fill="#ffffff"/>
   <path id="svg_3" d="m14.599999,5.1l13.599999,7.6c1.200001,0.7 2.800001,0.2 3.400002,-1l0.200001,-0.4c0.300001,-0.6 0.4,-1.2 0.199997,-1.900001c-0.199997,-0.599999 -0.599998,-1.2 -1.199999,-1.5l-13.5,-7.6c-0.4,-0.2 -0.799999,-0.3 -1.199999,-0.3c-0.900001,0 -1.700001,0.5 -2.200001,1.3l-0.2,0.4c-0.3,0.6 -0.400001,1.2 -0.2,1.9c0.099999,0.6 0.599999,1.1 1.099999,1.5z" fill="#ffffff"/>
   <rect id="svg_4" height="14" width="13.1" fill="#ffffff" transform="matrix(0.8735,0.4868,-0.4868,0.8735,10.6326,-6.4095) " y="10.055327" x="10.332482"/>
   <path id="svg_5" d="m45.900002,30.5l-20.400002,-11.4l-2,3.5l20.400002,11.300001c0.299999,0.200001 0.599998,0.299999 1,0.299999c0.700001,0 1.400002,-0.400002 1.799999,-1c0.5,-1 0.100002,-2.200001 -0.799999,-2.700001z" fill="#ffffff"/>
   <path id="svg_6" d="m40.400002,39.299999l-37.000001,0c-1.9,0 -3.4,1.700001 -3.4,3.900002c0,2.099998 1.5,3.899998 3.4,3.899998l37.000001,0c1.900002,0 3.400002,-1.700001 3.400002,-3.899998c0,-2.200001 -1.5,-3.900002 -3.400002,-3.900002z" fill="#ffffff"/>
  </g>
 </g>
</svg>