<?xml version="1.0"?>
<svg viewBox="0 0 100 84" xmlns="http://www.w3.org/2000/svg" xmlns:svg="http://www.w3.org/2000/svg">
 <g>
  <title>Layer 1</title>
  <g id="svg_1">
   <path fill="#ffffff" id="svg_2" d="m93.374001,4.549997l-0.121002,-2.229001l1.251999,-0.060001c2.697006,-0.145 4.396004,-0.224998 5.396004,-0.252998l0,-2.007998c0,0 -87.968002,3.084002 -87.968002,18.784996c0,15.699001 33.588001,33.737 33.432999,42.737c-0.215996,12.247002 -34.151997,18.220001 -45.365997,22.220001l44.514999,0c1.339001,-1 2.815002,-1.640999 4.515999,-2.619003l0.966003,-0.462997l1.112999,1.980003l-0.968002,0.395996c-0.513996,0.294998 -1.001999,0.706001 -1.475998,0.706001l31.332001,0c0,0 15.591003,-8.984001 15.233002,-22.398003c-0.447998,-16.710999 -55.191006,-33.708996 -54.952999,-42.424c0.251999,-9.171996 59.622997,-12.193999 59.622997,-12.193999l0,-2.483999c-1,0.032 -2.707001,0.108997 -5.276001,0.247997l-1.250999,0.059999l0,0.000002l0,0.000001l0,0.000001l0,0.000002zm-64.485003,22.427999l-0.646,-0.91c-2.030001,-2.860001 -3.017,-5.472 -3.017,-7.985001c0,-1.406 0.700001,-2.729 2.082001,-3.934l0.841003,-0.733999l1.466999,1.681999l-0.841003,0.733c-0.873999,0.762001 -1.316,1.520002 -1.316,2.252001c0,2.006001 0.876001,4.257999 2.605001,6.694l0.646002,0.91l-1.821001,1.292l-0.000002,0zm38.408007,45.788002c-2.808998,2.598999 -6.473999,4.669998 -9.985001,6.57l-0.981998,0.529999l-1.061001,-1.963997l0.980999,-0.529999c3.388,-1.831001 6.913002,-3.822006 9.532001,-6.245003l0.818001,-0.758003l1.515999,1.638l-0.819,0.759003zm-0.757004,-19.108002l0.845001,0.728996c3.518997,3.043007 5.087997,5.313004 5.087997,7.360001c-0.021996,1.326004 -0.192001,2.546005 -0.502998,3.689003l-0.292,1.077003l-2.153999,-0.586006l0.292999,-1.076996c0.262001,-0.965004 0.403999,-2 0.422997,-3.077003c0.000999,-0.910995 -0.747993,-2.612999 -4.313995,-5.697998l-0.844002,-0.728996l1.458,-1.688004zm-16.322998,-11.653999l3.841999,2.643002c2.381001,1.630997 4.629002,3.172997 6.736,4.674999l0.908001,0.648003l-1.297001,1.816994l-0.907997,-0.646996c-2.09,-1.491005 -4.330002,-3.026001 -6.701,-4.652l-3.846004,-2.646004l1.266003,-1.837997zm-5.759003,-4.087002l0.901001,0.66l-1.318001,1.800999l-0.901001,-0.657997c-3.780998,-2.765003 -6.799,-5.194 -9.227001,-7.426003l-0.822002,-0.755001l1.511002,-1.643997l0.820999,0.754997c2.366001,2.175003 5.320999,4.552002 9.035004,7.267002zm2.456001,-28.309999c-4.466999,0.867002 -8.243,1.812 -11.223,2.809l-1.058998,0.354l-0.708,-2.115999l1.058998,-0.354c3.071999,-1.028 6.943001,-1.997998 11.506001,-2.884001l1.095001,-0.212l0.424999,2.191l-1.095001,0.212zm19.624001,-2.865999c-4.145,0.461 -8.042,0.964004 -11.582001,1.495004l-1.104,0.165998l-0.332001,-2.207001l1.104,-0.166c3.567001,-0.535996 7.493,-1.042 11.667,-1.506001l1.109001,-0.124002l0.246002,2.219005l-1.108002,0.122996l0,0.000001l0,0.000001zm19.804001,-1.750998c-4,0.275999 -7.924004,0.587996 -11.664001,0.93l-1.111,0.101996l-0.201996,-2.223l1.111,-0.101999c3.755997,-0.343 7.695999,-0.657 11.712997,-0.934l1.112,-0.077002l0.153999,2.227l-1.112999,0.077003l0,0.000001l0,0.000001z"/>
  </g>
 </g>
</svg>