<?xml version="1.0"?>
<svg width="48" height="48" xmlns="http://www.w3.org/2000/svg" xmlns:svg="http://www.w3.org/2000/svg">
 <g>
  <title>Layer 1</title>
  <g id="svg_1">
   <circle id="svg_2" r="5" cy="36.6" cx="36.6" fill="#ffffff"/>
   <circle id="svg_3" r="5" cy="36.6" cx="12.6" fill="#ffffff"/>
   <path id="svg_4" d="m21.299999,10.2l0,-1.099999c0,-1.3 -1,-2.5 -2.299999,-2.7c-1.5,-0.2 -2.799999,1 -2.799999,2.5l0,1.3c0,0.2 -0.1,0.3 -0.300001,0.3l-3.2,0c-0.2,0 -0.4,0.1 -0.599999,0.2l-11.4,11.900001c-0.1,0.1 -0.2,0.299999 -0.2,0.5l0,13.300001c0,0.199997 0.1,0.299999 0.3,0.299999l3.4,0c0.2,0 0.3,-0.100002 0.3,-0.299999c0,-2 0.8,-4.100002 2.4,-5.600002c1.6,-1.599998 3.6,-2.4 5.8,-2.4c2.2,0 4.3,0.9 5.8,2.4c1.6,1.600002 2.4,3.600002 2.4,5.600002c0,0.199997 0.1,0.299999 0.300001,0.299999l7,0c0.199999,0 0.299999,-0.100002 0.299999,-0.299999c0,-2 0.799999,-4.100002 2.4,-5.600002c1.6,-1.599998 3.6,-2.4 5.800001,-2.4c2.200001,0 4.299999,0.9 5.799999,2.4c1.599998,1.600002 2.400002,3.600002 2.400002,5.600002c0,0.199997 0.099998,0.299999 0.299999,0.299999l2.099998,0c0.200001,0 0.299999,-0.100002 0.299999,-0.299999l0,-25.600001c0,-0.2 -0.099998,-0.3 -0.299999,-0.3l-25.699999,0c-0.1,0 -0.300001,-0.1 -0.300001,-0.3zm-7.699999,13.8l-10.6,0c-0.2,0 -0.4,-0.299999 -0.2,-0.5l10.6,-10.6c0.200001,-0.2 0.5,-0.099999 0.5,0.200001l0,10.6c0,0.199999 -0.099999,0.299999 -0.299999,0.299999zm22.499998,-2.1l-1.699997,0c-0.200001,0 -0.300003,0.1 -0.300003,0.300001l0,1.699999c0,0.800001 -0.699997,1.5 -1.5,1.5s-1.499998,-0.699999 -1.499998,-1.5l0,-1.699999c0,-0.200001 -0.1,-0.300001 -0.300001,-0.300001l-1.699999,0c-0.800001,0 -1.5,-0.699999 -1.5,-1.5s0.699999,-1.5 1.5,-1.5l1.699999,0c0.200001,0 0.300001,-0.1 0.300001,-0.299999l0,-1.6c0,-0.799999 0.699999,-1.5 1.499998,-1.5s1.5,0.700001 1.5,1.5l0,1.700001c0,0.199999 0.100002,0.299999 0.300003,0.299999l1.699997,0c0.800003,0 1.5,0.700001 1.5,1.5s-0.699997,1.4 -1.5,1.4z" fill="#ffffff"/>
  </g>
 </g>
</svg>