<?xml version="1.0"?>
<svg viewBox="0 0 100 73.682" xmlns="http://www.w3.org/2000/svg" xmlns:svg="http://www.w3.org/2000/svg">
 <g>
  <title>Layer 1</title>
  <path d="m51,-1l-50,26.315001l50,26.315001l28.945999,-14.637001c0,0 0,13.266998 0,19.898998c0,10.527 10.527,10.527 10.527,10.527l0,-5.263c0,0 -5.263,-0.300999 -5.263,-5.264999c0,-7.895 0,-22.861 0,-22.861l15.790001,-8.714998l-50,-26.315l0,-0.000001z" id="svg_1" fill="#FFF"/>
  <path d="m26.315001,47.367001l0,10.526001c0,2.614998 1.710999,6.118 5.262999,7.895l18.422001,7.893997l15.789001,-7.894997c3.553001,-1.776001 8.142998,-5.292004 7.894997,-7.895004l0,-10.524998l-23.683998,11.512001l-23.684999,-11.512001z" id="svg_2" fill="#FFF"/>
 </g>
</svg>