<?xml version="1.0"?>
<svg viewBox="0 0 100 61.21" xmlns="http://www.w3.org/2000/svg" xmlns:svg="http://www.w3.org/2000/svg">
 <g>
  <title>Layer 1</title>
  <path fill="#ffffff" id="svg_1" d="m42.755001,35.891998l-3.838001,-9.786999c-0.745998,-1.847002 -2.32,-3.435001 -5.278,-3.456001l-5.469999,0l0,-2.544001c0.005001,-1.004 -0.555,-1.521999 -1.440001,-1.534l-3.213999,0l-3.167,0c-0.907,0.011002 -1.465,0.529001 -1.487001,1.534l0,2.544001l-5.521,0c-2.946,0.021 -4.521,1.608999 -5.229,3.456001l-3.887,9.786999c-1.523,0.182003 -4.232,1.944 -4.224,5.280003l0,12.427998l3.743,0l0,3.98c0.004,4.868 7.061,4.811001 7.054,0l0,-3.98l12.716001,0l12.667999,0l0,3.98c0.007,4.811001 7.063,4.868 7.053001,0l0,-3.98l3.791,0l0,-12.427998c-0.025002,-3.336002 -2.735001,-5.098 -4.27,-5.280003zm-35.364001,10.126003c-1.804,-0.018002 -3.262,-1.494003 -3.264,-3.313c0.002,-1.815998 1.46,-3.292 3.264,-3.310001c1.796,0.018002 3.255,1.493 3.262,3.310001c-0.007,1.818996 -1.466,3.294998 -3.262,3.313zm16.122001,-10.366001l-0.047001,0l-15.261,0l2.928,-7.533998c0.367,-1.102001 0.912999,-1.881002 2.207,-1.872002l10.125999,0l0.047001,0l10.172001,0c1.258999,-0.008999 1.805,0.771 2.16,1.872002l2.927998,7.533998l-15.259998,0zm16.074001,10.366001c-1.784,-0.017998 -3.243999,-1.493 -3.263,-3.312c0.019001,-1.815998 1.479,-3.292 3.263,-3.309998c1.814999,0.017998 3.275002,1.493 3.264,3.309998c0.010998,1.817997 -1.449001,3.293999 -3.264,3.312z"/>
  <path id="svg_2" d="m39.587002,42.705002"/>
  <path id="svg_3" d="m92.082001,42.033001"/>
  <path id="svg_4" d="m57.101002,42.033001"/>
  <g id="svg_5">
   <path fill="#ffffff" id="svg_6" d="m74.328003,0c0.086998,0 0.178001,0.005 0.265999,0.005c0.084999,0 0.175995,-0.005 0.263,-0.005l-0.528999,0z"/>
   <path fill="#ffffff" id="svg_7" d="m97.553001,9.07c-0.701004,-3.382999 -2.896004,-4.733 -6.190002,-6.097c-3.243996,-1.318 -11.009995,-2.909 -16.768997,-2.968c-5.751999,0.059 -13.517998,1.65 -16.771999,2.968c-3.280998,1.364 -5.478001,2.714 -6.142998,6.097l-2.495003,18.711l0,25.818998l4.27,0l0,4.029999c-0.013,4.945004 7.318001,4.945004 7.341999,0l0,-4.029999l13.532001,0l14.107002,0l0,4.029999c-0.014999,4.945004 7.315994,4.945004 7.293999,0l0,-4.029999l4.270996,0l0,-25.818998l-2.446999,-18.711zm-33.397003,-4.319l10.171997,0l10.701004,0c2.080002,-0.008 2.080002,3.03 0,3.022l-10.700996,0l-10.172005,0c-2.070999,0.008 -2.070999,-3.03 0,-3.022zm-7.054996,40.736999c-1.931999,0.02 -3.506001,-1.533001 -3.501999,-3.455002c-0.004002,-1.904999 1.57,-3.453999 3.501999,-3.453999c1.952,0 3.527,1.549 3.503002,3.453999c0.023994,1.922005 -1.551003,3.475002 -3.503002,3.455002zm17.227001,-15.737999l-18.617004,0c-1.84,0.014 -2.223,-1.277 -2.063999,-2.591l1.919998,-13.58c0.287003,-1.64 0.855003,-2.728001 3.022003,-2.734l15.738995,0l16.266006,0c2.179001,0.006 2.749001,1.094 3.022995,2.734l1.921005,13.58c0.169998,1.313999 -0.214005,2.604 -2.065002,2.591l-19.144997,0zm17.753998,15.737999c-1.940002,0.02 -3.514999,-1.533001 -3.503998,-3.455002c-0.011002,-1.904999 1.562996,-3.453999 3.503998,-3.453999c1.945,0 3.518997,1.549 3.502998,3.453999c0.015999,1.922005 -1.557999,3.475002 -3.502998,3.455002z"/>
  </g>
 </g>
</svg>