<?xml version="1.0"?>
<svg viewBox="0 0 100 100" xmlns="http://www.w3.org/2000/svg" xmlns:svg="http://www.w3.org/2000/svg">
 <g>
  <title>Layer 1</title>
  <g id="_x31_5.">
   <g id="svg_16">
    <path fill="#FFF" d="m34.46666,59.53331c0.200012,0 0.399994,0.199997 0.399994,0.400017l0,14.599983c0,0.199997 -0.199982,0.400017 -0.399994,0.400017l-5.899986,0c-0.200012,0 -0.399994,-0.200027 -0.399994,-0.400017l0,-14.599983c0,-0.200027 0.199982,-0.400017 0.399994,-0.400017l5.899986,0z" class="st3" id="XMLID_623_"/>
    <path fill="#FFF" d="m99.266663,81.233307l-97.199993,0c-0.200008,0 -0.39999,0.200005 -0.39999,0.5l0,5.899994c0,0.199997 0.199982,0.400009 0.39999,0.400009l97.099987,0c0.199997,0 0.399979,-0.200012 0.399979,-0.400009l0,-5.899994c0.100021,-0.299988 -0.099976,-0.5 -0.299973,-0.5" class="st3" id="XMLID_622_"/>
    <path fill="#FFF" d="m99.266663,93.03331l-97.199993,0c-0.200008,0 -0.39999,0.199997 -0.39999,0.400009l0,6c0,0.199997 0.199982,0.399994 0.39999,0.399994l97.099987,0c0.199997,0 0.399979,-0.199997 0.399979,-0.399994l0,-6c0.100021,-0.200012 -0.099976,-0.400009 -0.299973,-0.400009" class="st3" id="XMLID_620_"/>
    <path fill="#FFF" d="m80.766678,43.433319c-1.199997,-0.900009 -4.5,-3.199982 -8.399986,-3.199982c-2.800018,0 -5.400024,1.099983 -7.800018,3.299973c-0.199982,0.200027 -0.300003,0.400017 -0.300003,0.600014l0,0.5c0,0.300018 0.100006,0.5 0.300003,0.699997c0.199997,0.200012 0.399986,0.200012 0.699997,0.200012c0.100006,0 0.100006,0 0.200012,0c0.199974,-0.099991 0.299988,-0.200012 0.499969,-0.299973c0.500031,-0.300003 1.900017,-0.800018 3.900017,-0.800018c2.099983,0 6.099983,0.599991 9.999985,4.199997l0.100006,0.100021c0.200012,0.199997 0.5,0.399979 0.800018,0.399979c0.300003,0 0.599991,-0.100006 0.799995,-0.299988l0.100006,-0.099991c3.899994,-3.600021 8,-4.200027 9.999992,-4.200027c2,0 3.400009,0.5 3.899994,0.799988c0.100006,0.100021 0.299988,0.200012 0.500015,0.300003c0.099991,0 0.299988,0.100014 0.599991,0c0.400009,-0.100014 0.600006,-0.399986 0.600006,-0.799995l0,-0.500015c0,-0.200005 -0.100006,-0.399986 -0.300003,-0.599983c-2.399979,-2.300034 -5,-3.400017 -7.899986,-3.400017c-3.799995,-0.099983 -7.100006,2.100006 -8.299995,3.100006" class="st3" id="XMLID_619_"/>
    <path fill="#FFF" d="m74.766678,4.733341c-0.199997,0.10001 -0.400017,0.299999 -0.400017,0.500019l-0.099983,0.299988c-0.100006,0.300011 0,0.500011 0.099983,0.700012c0.200012,0.200001 0.400017,0.299988 0.600006,0.299988c0,0 0.100014,0 0.100014,0c0.200012,0 0.299988,0 0.5,-0.099987c0.100006,0 0.299988,-0.10001 0.600006,-0.10001c0.399994,0 4.299995,0.10001 6.899994,4.5l0,0.10001c0.100006,0.299999 0.400002,0.39999 0.600006,0.5c0.100014,0 0.200005,0 0.300003,0c0.199997,0 0.399986,0 0.5,-0.10001l0.099991,0c1.400009,-0.700001 2.900009,-1.099991 4.299995,-1.099991c2.500008,0 4.100014,1 4.400017,1.39999c0.099991,0.10001 0.199997,0.299999 0.299988,0.39999c0.100006,0 0.200012,0.10001 0.300003,0.200001c0,0 0.100006,0 0.100006,0c0,0 0.100006,0 0.100006,0c0.099991,0 0.299988,0 0.399994,-0.10001c0.199997,-0.10001 0.300003,-0.300003 0.399994,-0.5l0.100006,-0.300003c0,-0.099987 0,-0.199997 0,-0.199997c0,-0.200001 0,-0.300003 -0.100006,-0.39999c-1.899994,-3.300003 -4.599991,-4.000011 -6.599991,-4.000011c-1.5,0 -2.700012,0.400002 -3.5,0.700001c-0.900017,-1.200001 -3.100014,-3.700001 -6.599991,-3.700001c-1,0.10001 -2.200005,0.400009 -3.399994,1" class="st3" id="XMLID_617_"/>
    <path fill="#FFF" d="m54.166672,19.633331l0,0.400009c0,0.299988 0.199982,0.499981 0.399986,0.700001c0.200012,0.10001 0.399994,0.200008 0.700012,0.10001c0,0 0.099983,0 0.099983,0c0.199997,-0.10001 0.300018,-0.200001 0.400017,-0.300022c0.399986,-0.299988 1.699982,-0.799988 3.699982,-0.799988c1.899986,0 4.800018,0.5 7.699997,2.89999l0.100014,0.10001c0.199974,0.200008 0.5,0.299999 0.699974,0.299999l0.100014,0c0.300003,0 0.600006,-0.200001 0.800003,-0.400009l0.100006,-0.10001c3.200012,-3.399982 6.700012,-3.89999 8.5,-3.89999c1.300018,0 2.199982,0.300018 2.5,0.500019c0.099983,0.099991 0.300018,0.199978 0.5,0.299988c0.100014,0 0.199982,0 0.399994,0c0.100006,0 0.100006,0 0.199989,0c0.300018,-0.10001 0.600006,-0.499969 0.600006,-0.799988l0,-0.39999c0,-0.200001 -0.100006,-0.39999 -0.299995,-0.60001c-1.899994,-1.599991 -4,-2.39999 -6.199982,-2.39999c-3.399994,0 -6.100014,2 -7.300018,3c-1,-0.700012 -3.5,-2.200001 -6.5,-2.200001c-2.599983,0 -4.899994,1.10001 -6.899994,3.200001c-0.199982,0 -0.299988,0.200001 -0.299988,0.39999" class="st3" id="XMLID_616_"/>
    <path fill="#FFF" d="m5.066669,27.433327c0,-5.799995 4.699982,-10.499977 10.5,-10.499977c0.200012,0 0.500011,0 0.700012,0c0.599979,-7.400021 6.699978,-13.200008 14.199978,-13.200008c7.899994,0 14.200012,6.399998 14.200012,14.200008c0,2.200001 -0.5,4.299992 -1.399994,6.199997c7.099983,1.599991 12.5,7.899963 12.5,15.499977c0,8.799995 -7.100006,15.899986 -15.900017,15.899986c-0.599983,0 -21.199982,-0.099991 -21.199982,-0.099991l0,0c-6.200001,0 -11.30003,-5 -11.30003,-11.299995c0,-3 1.200012,-5.700005 3.100021,-7.700005c-3.299992,-1.599991 -5.39999,-5 -5.39999,-8.999977l-0.000019,0l0.000008,-0.000015z" class="st3" id="XMLID_615_"/>
   </g>
  </g>
  <g class="st0" id="Guides"/>
 </g>
</svg>