<?xml version="1.0"?>
<svg width="72" height="72" xmlns="http://www.w3.org/2000/svg" xmlns:svg="http://www.w3.org/2000/svg">
 <g>
  <title>Layer 1</title>
  <path id="svg_1" d="m49.599998,22l20.599998,-4.799999c0.600006,-0.1 1,-0.700001 1,-1.300001l0,-1.099999c0,-0.7 -0.599998,-1.3 -1.299995,-1.3l-2.700005,0c-0.099998,0 -0.299995,-0.1 -0.299995,-0.3l0,-3.9c0,-1 -0.700005,-1.9 -1.599998,-2.1c-1.200005,-0.2 -2.300003,0.8 -2.300003,2l0,4c0,0.1 -0.099998,0.3 -0.299999,0.3l-6.299999,0c-0.100002,0 -0.300003,-0.1 -0.300003,-0.3l0,-3.9c0,-1 -0.699997,-1.9 -1.599998,-2.1c-1.200001,-0.2 -2.299999,0.8 -2.299999,2l0,4c0,0.1 -0.100002,0.3 -0.299999,0.3l-3.100002,0c-0.700001,0 -1.200001,-0.5 -1.299999,-1.2l-0.900002,-8.9c-0.199997,-1.7 -1.5,-2.9 -3,-2.9l-14.599998,0c-1.5,0 -2.799999,1.2 -3,2.9l-0.9,8.9c-0.1,0.7 -0.6,1.2 -1.300001,1.2l-3.599998,0c-0.1,0 -0.300001,-0.1 -0.300001,-0.3l0,-3.9c0,-1 -0.699999,-1.9 -1.6,-2.1c-1.199999,-0.2 -2.299999,0.8 -2.299999,2l0,4c0,0.1 -0.1,0.3 -0.3,0.3l-6.4,0c-0.1,0 -0.3,-0.1 -0.3,-0.3l0,-3.9c0,-1 -0.7,-1.9 -1.6,-2.1c-1.2,-0.1 -2.3,0.8 -2.3,2l0,4c0,0.1 -0.1,0.3 -0.3,0.3l-2.7,0c-0.7,0 -1.3,0.6 -1.3,1.3l0,1.099999c0,0.6 0.4,1.1 1,1.300001l21.2,4.9c0.6,0.1 1.1,0.799999 1,1.4l-3.299999,31.700001c0,0.299999 -0.300001,0.599998 -0.6,0.599998l-15.400001,0l0,0l-0.9,0c-1.7,0 -3,1.400002 -3,3.299999l0,9.200005c0,1.799995 1.3,3.299995 3,3.299995l64.299999,0c1.700005,0 3.099998,-1.5 3.099998,-3.400002l0,-8.799995c0,-1.900002 -1.399994,-3.400002 -3.099998,-3.400002l-0.099998,0l0,-0.099998l-15.5,0c-0.299999,0 -0.599998,-0.200001 -0.599998,-0.600002l-3.300003,-31.799999c-0.099998,-0.799999 0.400002,-1.4 1,-1.5zm-4.399998,6.799999l1.299999,12.600002c0.099998,0.5 -0.5,0.899998 -0.900002,0.599998l-14.099998,-6.900002c-0.5,-0.199997 -0.5,-0.899998 0,-1.199997l12.700001,-5.700001c0.5,-0.1 0.899998,0.199999 1,0.599998zm-2.200001,-21.199999l1.400002,13.100001c0.099998,0.5 -0.600002,0.9 -1,0.599998l-10.800003,-7.599999c-0.399998,-0.3 -0.399998,-0.8 0,-1.099999l9.400002,-5.5c0.400002,-0.2 0.900002,0 1,0.5zm-13.1,-2.6c0,-0.3 0.300001,-0.6 0.6,-0.6l5.799999,0c0.600002,0 0.900002,0.9 0.299999,1.2l-6.199999,3.6c-0.4,0.3 -1,-0.099999 -0.9,-0.599999l0.4,-3.6zm-1.299999,11.9c0.1,-0.5 0.6,-0.699999 1,-0.5l11.300001,8c0.399998,0.300001 0.299999,0.9 -0.100002,1.1l-12.699999,5.700001c-0.4,0.199999 -0.9,-0.200001 -0.9,-0.6l1.4,-13.700001zm-3.700001,35.500002l1.5,-14.400002c0,-0.400002 0.5,-0.700001 0.9,-0.5l14.799999,7.299999c0.5,0.200001 0.5,0.900002 0,1.200001l-16.299999,7c-0.4,0.200001 -0.9,-0.200001 -0.9,-0.599998zm22.4,3.399998l-14.799999,0c-0.700001,0 -0.9,-0.899998 -0.299999,-1.200001l14.099998,-6.099998c0.400002,-0.200001 0.799999,0.099998 0.900002,0.5l0.599998,6.099998c0.100002,0.300003 -0.200001,0.700001 -0.5,0.700001z" fill="#FFFFFF"/>
 </g>
</svg>