<?xml version="1.0"?>
<svg width="100" height="100" xmlns="http://www.w3.org/2000/svg" xmlns:svg="http://www.w3.org/2000/svg">
 <g>
  <title>Layer 1</title>
  <polygon fill="#FFFFFF" id="svg_1" points="50,0 0,24.352 0,36.776 50,12.5 99.999,36.776 99.999,24.352 "/>
  <rect fill="#FFFFFF" id="svg_2" height="11.11" width="20.833" y="88.889" x="79.166"/>
  <path fill="#FFFFFF" id="svg_3" d="m52.577,37.544998c-2.279999,-1.425999 -5.277,-0.731998 -6.699001,1.544998c-0.017998,0.029003 -0.026997,0.060001 -0.043999,0.089001l0,0l-10.862999,20.793003l0.000999,0c-0.158001,0.348999 -0.25,0.731998 -0.25,1.139c0,1.534 1.243999,2.778 2.777,2.778c1.066002,0 1.980999,-0.606998 2.446999,-1.488998l0.006001,0.002998l10.275002,-14.143002c3.400002,4.000999 4.994999,10.218002 5.641998,14.933998l-11.424999,0.001003c-1.562,0 -3.028999,0.751999 -3.943001,2.019997c-0.913998,1.266998 -1.161999,2.896004 -0.667999,4.377998l5.556,16.667c0.384003,1.152 1.165001,2.054001 2.132999,2.628006l-47.521999,0.001999l0,11.110001l58.333,-0.000999l0,-1.056999l0.154999,0l0,-9.699005l-0.154999,0l0,-0.354996l-5.839001,0c1.915001,-1.145004 2.853001,-3.499001 2.117001,-5.701004l-3.423,-10.268997l9.923,-0.001999c2.686001,0 4.860001,-2.177002 4.860001,-4.861c0.000999,-0.903999 -0.151001,-22.233002 -13.394001,-30.510002z"/>
  <circle fill="#FFFFFF" id="svg_4" r="6.944" cy="32.639" cx="38.195"/>
 </g>
</svg>